<svg xmlns="http://www.w3.org/2000/svg" xmlns:xlink="http://www.w3.org/1999/xlink" viewBox="0 0 48 48"><defs><style>.cls-1{fill:none;}.cls-2{isolation:isolate;}.cls-3{stroke:#fff;stroke-miterlimit:10;fill:url(#linear-gradient);}.cls-3,.cls-5{opacity:0.72;}.cls-4{fill:#fff;opacity:0.12;mix-blend-mode:soft-light;}.cls-5{fill:url(#linear-gradient-2);}.cls-6{clip-path:url(#clip-path);}.cls-7{fill:#00022b;}</style><linearGradient id="linear-gradient" x1="-104.97" y1="160.21" x2="-57.97" y2="160.21" gradientTransform="matrix(1, 0, 0, -1, 105.47, 184.21)" gradientUnits="userSpaceOnUse"><stop offset="0" stop-color="#fff"/><stop offset="0.11" stop-color="#efefef"/><stop offset="0.53" stop-color="#b3b3b3"/><stop offset="0.84" stop-color="#8e8e8e"/><stop offset="1" stop-color="gray"/></linearGradient><linearGradient id="linear-gradient-2" x1="486.98" y1="-938.57" x2="527.42" y2="-938.57" gradientTransform="matrix(-1, 0, 0, 1, 531.2, 963.57)" gradientUnits="userSpaceOnUse"><stop offset="0" stop-color="#fff" stop-opacity="0.5"/><stop offset="0.31" stop-color="#f3f3f3" stop-opacity="0.53"/><stop offset="0.57" stop-color="#cfcfcf" stop-opacity="0.63"/><stop offset="0.81" stop-color="#929292" stop-opacity="0.81"/><stop offset="1" stop-color="#4d4d4d"/></linearGradient><clipPath id="clip-path"><rect id="SVGID" class="cls-1" x="12.39" y="13.57" width="25.42" height="22.77"/></clipPath></defs><title>twitter</title><g class="cls-2"><g id="Layer_2" data-name="Layer 2"><g id="Layer_1-2" data-name="Layer 1"><circle class="cls-3" cx="24" cy="24" r="23.5" transform="translate(-0.3 47.7) rotate(-89.29)"/><path class="cls-4" d="M24.29.5c-.42,0-.84,0-1.25,0A23.39,23.39,0,0,0,11.27,4.24C13,32.68,28,40.3,39.12,42A23.5,23.5,0,0,0,24.29.5Z"/><circle class="cls-5" cx="24" cy="25" r="20.22" transform="translate(-1.3 48.69) rotate(-89.29)"/><path class="cls-4" d="M23.75,45.22h1.08A20.12,20.12,0,0,0,34.95,42C33.46,17.53,20.57,11,11,9.52a20.22,20.22,0,0,0,12.76,35.7Z"/><g class="cls-6"><path class="cls-7" d="M37.35,17.65a9.55,9.55,0,0,1-1.75.63A5.94,5.94,0,0,0,37,15.81a.29.29,0,0,0-.42-.36A9.71,9.71,0,0,1,34,16.64l-.17,0a.68.68,0,0,1-.47-.19A5.25,5.25,0,0,0,29.7,15a5.47,5.47,0,0,0-1.73.29,5.55,5.55,0,0,0-3.57,4.11,6.74,6.74,0,0,0-.13,2.17.22.22,0,0,1,0,.17.2.2,0,0,1-.15.07h0a14.08,14.08,0,0,1-9.86-5.66.28.28,0,0,0-.47,0,6.22,6.22,0,0,0-.74,3,6.11,6.11,0,0,0,1.63,4.19,4.7,4.7,0,0,1-1.25-.52.29.29,0,0,0-.42.27,5.94,5.94,0,0,0,3.19,5.43H16a4.56,4.56,0,0,1-.92-.09.3.3,0,0,0-.33.4,5.62,5.62,0,0,0,4.33,4,9.6,9.6,0,0,1-5.65,1.85h-.63a.43.43,0,0,0-.41.34.48.48,0,0,0,.21.51,14.43,14.43,0,0,0,14,.72,14.37,14.37,0,0,0,4.72-3.8,17,17,0,0,0,2.89-5.2,17.54,17.54,0,0,0,1-5.69v-.09a1,1,0,0,1,.35-.78,11.37,11.37,0,0,0,2.17-2.57.3.3,0,0,0-.35-.45Zm0,0"/></g></g></g></g></svg>