<svg xmlns="http://www.w3.org/2000/svg" xmlns:xlink="http://www.w3.org/1999/xlink" viewBox="0 0 48 48"><defs><style>.cls-1{isolation:isolate;}.cls-2{stroke:#fff;stroke-miterlimit:10;fill:url(#linear-gradient);}.cls-2,.cls-4{opacity:0.72;}.cls-3{fill:#fff;opacity:0.12;mix-blend-mode:soft-light;}.cls-4{fill:url(#linear-gradient-2);}.cls-5{fill:#00022b;}</style><linearGradient id="linear-gradient" x1="-154.35" y1="110.22" x2="-107.35" y2="110.22" gradientTransform="matrix(1, 0, 0, -1, 154.85, 134.22)" gradientUnits="userSpaceOnUse"><stop offset="0" stop-color="#fff"/><stop offset="0.11" stop-color="#efefef"/><stop offset="0.53" stop-color="#b3b3b3"/><stop offset="0.84" stop-color="#8e8e8e"/><stop offset="1" stop-color="gray"/></linearGradient><linearGradient id="linear-gradient-2" x1="436.36" y1="-888.58" x2="476.8" y2="-888.58" gradientTransform="matrix(-1, 0, 0, 1, 480.58, 913.58)" gradientUnits="userSpaceOnUse"><stop offset="0" stop-color="#fff" stop-opacity="0.5"/><stop offset="0.31" stop-color="#f3f3f3" stop-opacity="0.53"/><stop offset="0.57" stop-color="#cfcfcf" stop-opacity="0.63"/><stop offset="0.81" stop-color="#929292" stop-opacity="0.81"/><stop offset="1" stop-color="#4d4d4d"/></linearGradient></defs><title>facebook</title><g class="cls-1"><g id="Layer_2" data-name="Layer 2"><g id="Layer_1-2" data-name="Layer 1"><circle class="cls-2" cx="24" cy="24" r="23.5" transform="translate(-0.3 47.7) rotate(-89.29)"/><path class="cls-3" d="M24.29.5c-.42,0-.84,0-1.25,0A23.39,23.39,0,0,0,11.27,4.24C13,32.68,28,40.3,39.12,42A23.5,23.5,0,0,0,24.29.5Z"/><circle class="cls-4" cx="24" cy="25" r="20.22" transform="translate(-1.3 48.69) rotate(-89.29)"/><path class="cls-3" d="M23.75,45.22h1.08A20.12,20.12,0,0,0,34.95,42C33.46,17.53,20.57,11,11,9.52a20.22,20.22,0,0,0,12.76,35.7Z"/><path class="cls-5" d="M32.93,13.5H15.2a3.27,3.27,0,0,0-3.27,3.27V34.5a3.27,3.27,0,0,0,3.27,3.27h8.74l0-8.67H21.7a.53.53,0,0,1-.53-.53v-2.8a.53.53,0,0,1,.53-.53h2.25v-2.7c0-3.13,1.91-4.84,4.71-4.84h2.29a.53.53,0,0,1,.53.53v2.36a.53.53,0,0,1-.53.53H29.54c-1.52,0-1.82.72-1.82,1.78v2.34h3.34a.53.53,0,0,1,.53.59l-.33,2.8a.53.53,0,0,1-.53.47h-3l0,8.67h5.2A3.27,3.27,0,0,0,36.2,34.5V16.77a3.27,3.27,0,0,0-3.27-3.27Zm0,0"/></g></g></g></svg>