<svg xmlns="http://www.w3.org/2000/svg" xmlns:xlink="http://www.w3.org/1999/xlink" viewBox="0 0 48 48"><defs><style>.cls-1{fill:none;}.cls-2{isolation:isolate;}.cls-3{stroke:#fff;stroke-miterlimit:10;fill:url(#linear-gradient);}.cls-3,.cls-5{opacity:0.72;}.cls-4{fill:#fff;opacity:0.12;mix-blend-mode:soft-light;}.cls-5{fill:url(#linear-gradient-2);}.cls-6{clip-path:url(#clip-path);}.cls-7{fill:#00022b;}</style><linearGradient id="linear-gradient" x1="-256.07" y1="7.22" x2="-209.07" y2="7.22" gradientTransform="matrix(1, 0, 0, -1, 256.57, 31.22)" gradientUnits="userSpaceOnUse"><stop offset="0" stop-color="#fff"/><stop offset="0.11" stop-color="#efefef"/><stop offset="0.53" stop-color="#b3b3b3"/><stop offset="0.84" stop-color="#8e8e8e"/><stop offset="1" stop-color="gray"/></linearGradient><linearGradient id="linear-gradient-2" x1="332.09" y1="-785.58" x2="372.53" y2="-785.58" gradientTransform="matrix(-1, 0, 0, 1, 376.31, 810.58)" gradientUnits="userSpaceOnUse"><stop offset="0" stop-color="#fff" stop-opacity="0.5"/><stop offset="0.31" stop-color="#f3f3f3" stop-opacity="0.53"/><stop offset="0.57" stop-color="#cfcfcf" stop-opacity="0.63"/><stop offset="0.81" stop-color="#929292" stop-opacity="0.81"/><stop offset="1" stop-color="#4d4d4d"/></linearGradient><clipPath id="clip-path"><rect id="SVGID" class="cls-1" x="11.76" y="13.22" width="25.78" height="22.41"/></clipPath></defs><title>amazon</title><g class="cls-2"><g id="Layer_2" data-name="Layer 2"><g id="Layer_1-2" data-name="Layer 1"><circle class="cls-3" cx="24" cy="24" r="23.5" transform="translate(-0.3 47.7) rotate(-89.29)"/><path class="cls-4" d="M24.29.5c-.42,0-.84,0-1.25,0A23.39,23.39,0,0,0,11.27,4.24C13,32.68,28,40.3,39.12,42A23.5,23.5,0,0,0,24.29.5Z"/><circle class="cls-5" cx="24" cy="25" r="20.22" transform="translate(-1.3 48.69) rotate(-89.29)"/><path class="cls-4" d="M23.75,45.22h1.08A20.12,20.12,0,0,0,34.95,42C33.46,17.53,20.57,11,11,9.52a20.22,20.22,0,0,0,12.76,35.7Z"/><g class="cls-6"><path class="cls-7" d="M31.29,26.85l-.77-1.19a2.26,2.26,0,0,1-.36-1.23v-5c0-2,.14-6.22-5.53-6.22-4.61,0-6,2.46-6.48,4A1,1,0,0,0,19,18.51l1.79.18a1,1,0,0,0,1-.56,2.79,2.79,0,0,1,2.82-1.8c.72,0,1.74.31,1.74,1.2,0,1.3,0,1.91,0,1.91a.48.48,0,0,1-.48.49H24.13c-1.32,0-6.33.68-6.33,5.69s5.32,4.44,5.67,4.35a6.84,6.84,0,0,0,3.05-1.71.46.46,0,0,1,.68,0l.94,1.16a1,1,0,0,0,1.46.1l1.54-1.43a1,1,0,0,0,.16-1.27Zm-7.69-.28c-1.78,0-1.73-1.61-1.32-2.37s1.4-2,4.13-2.07l0,1.33A3,3,0,0,1,25.19,26a2.87,2.87,0,0,1-1.59.61Zm0,0"/><path class="cls-7" d="M11.87,31.15a.32.32,0,0,1,.35-.52,26.91,26.91,0,0,0,11.42,2.89,34.34,34.34,0,0,0,11-1.89.32.32,0,0,1,.3.54c-1.63,1.32-5.14,3.37-11.22,3.37a17.5,17.5,0,0,1-11.9-4.4Zm0,0"/></g><path class="cls-7" d="M32.53,30.44a5.1,5.1,0,0,1,4.59-.58.52.52,0,0,1,.37.49,5.79,5.79,0,0,1-1.68,4.12.15.15,0,0,1-.24-.14,12.39,12.39,0,0,0,.62-3.3c-.19-.33-2.59-.34-3.57-.34a.15.15,0,0,1-.09-.26Zm0,0"/></g></g></g></svg>