<svg xmlns="http://www.w3.org/2000/svg" xmlns:xlink="http://www.w3.org/1999/xlink" viewBox="0 0 48 48"><defs><style>.cls-1{fill:none;}.cls-2{isolation:isolate;}.cls-3{stroke:#fff;stroke-miterlimit:10;fill:url(#linear-gradient);}.cls-3,.cls-5{opacity:0.72;}.cls-4{fill:#fff;opacity:0.12;mix-blend-mode:soft-light;}.cls-5{fill:url(#linear-gradient-2);}.cls-6{clip-path:url(#clip-path);}.cls-7{fill:#00022b;}</style><linearGradient id="linear-gradient" x1="-206.04" y1="57.88" x2="-159.04" y2="57.88" gradientTransform="matrix(1, 0, 0, -1, 206.54, 81.88)" gradientUnits="userSpaceOnUse"><stop offset="0" stop-color="#fff"/><stop offset="0.11" stop-color="#efefef"/><stop offset="0.53" stop-color="#b3b3b3"/><stop offset="0.84" stop-color="#8e8e8e"/><stop offset="1" stop-color="gray"/></linearGradient><linearGradient id="linear-gradient-2" x1="385.4" y1="-838.24" x2="425.83" y2="-838.24" gradientTransform="matrix(-1, 0, 0, 1, 429.61, 863.24)" gradientUnits="userSpaceOnUse"><stop offset="0" stop-color="#fff" stop-opacity="0.5"/><stop offset="0.31" stop-color="#f3f3f3" stop-opacity="0.53"/><stop offset="0.57" stop-color="#cfcfcf" stop-opacity="0.63"/><stop offset="0.81" stop-color="#929292" stop-opacity="0.81"/><stop offset="1" stop-color="#4d4d4d"/></linearGradient><clipPath id="clip-path"><rect id="SVGID" class="cls-1" x="10.01" y="10.37" width="28.49" height="28.57"/></clipPath></defs><title>penterist</title><g class="cls-2"><g id="Layer_2" data-name="Layer 2"><g id="Layer_1-2" data-name="Layer 1"><circle class="cls-3" cx="24" cy="24" r="23.5" transform="translate(-0.3 47.7) rotate(-89.29)"/><path class="cls-4" d="M24.29.5c-.42,0-.84,0-1.25,0A23.39,23.39,0,0,0,11.27,4.24C13,32.68,28,40.3,39.12,42A23.5,23.5,0,0,0,24.29.5Z"/><circle class="cls-5" cx="24" cy="25" r="20.22" transform="translate(-1.3 48.69) rotate(-89.29)"/><path class="cls-4" d="M23.75,45.22h1.08A20.12,20.12,0,0,0,34.95,42C33.46,17.53,20.57,11,11,9.52a20.22,20.22,0,0,0,12.76,35.7Z"/><g class="cls-6"><path class="cls-7" d="M38.49,25A14.24,14.24,0,1,0,18,37.43a.4.4,0,0,0,.58-.38,10.72,10.72,0,0,1,.18-2.68l1.35-5.74a7,7,0,0,0,.07-2.92,6,6,0,0,1-.1-1.11c0-2.11,1.22-3.68,2.74-3.68a1.9,1.9,0,0,1,1.92,2.13c0,1.3-.83,3.24-1.25,5a2.2,2.2,0,0,0,2.24,2.74c2.69,0,4.76-2.84,4.76-6.93a6,6,0,0,0-6.32-6.16,6.55,6.55,0,0,0-6.84,6.57,5.89,5.89,0,0,0,1.13,3.45.45.45,0,0,1,.11.43l-.42,1.72c-.07.28-.22.34-.51.2-1.89-.88-3.07-3.64-3.07-5.87,0-4.78,3.47-9.16,10-9.16,5.25,0,9.33,3.74,9.33,8.74,0,5.22-3.29,9.42-7.86,9.42a4.46,4.46,0,0,1-3-1.16.38.38,0,0,0-.63.17l-.75,2.85a13.15,13.15,0,0,1-1.17,2.73.4.4,0,0,0,.26.58,14.29,14.29,0,0,0,3.64.44A14.48,14.48,0,0,0,38.49,25Zm0,0"/></g></g></g></g></svg>