<svg xmlns="http://www.w3.org/2000/svg" xmlns:xlink="http://www.w3.org/1999/xlink" viewBox="0 0 48 48"><defs><style>.cls-1{fill:none;}.cls-2{isolation:isolate;}.cls-3{stroke:#fff;stroke-miterlimit:10;fill:url(#linear-gradient);}.cls-3,.cls-5{opacity:0.72;}.cls-4{fill:#fff;opacity:0.12;mix-blend-mode:soft-light;}.cls-5{fill:url(#linear-gradient-2);}.cls-6{clip-path:url(#clip-path);}.cls-7{fill:#00022b;}</style><linearGradient id="linear-gradient" x1="-305.45" y1="-42.77" x2="-258.45" y2="-42.77" gradientTransform="matrix(1, 0, 0, -1, 305.95, -18.77)" gradientUnits="userSpaceOnUse"><stop offset="0" stop-color="#fff"/><stop offset="0.11" stop-color="#efefef"/><stop offset="0.53" stop-color="#b3b3b3"/><stop offset="0.84" stop-color="#8e8e8e"/><stop offset="1" stop-color="gray"/></linearGradient><linearGradient id="linear-gradient-2" x1="281.47" y1="-735.59" x2="321.91" y2="-735.59" gradientTransform="matrix(-1, 0, 0, 1, 325.69, 760.59)" gradientUnits="userSpaceOnUse"><stop offset="0" stop-color="#fff" stop-opacity="0.5"/><stop offset="0.31" stop-color="#f3f3f3" stop-opacity="0.53"/><stop offset="0.57" stop-color="#cfcfcf" stop-opacity="0.63"/><stop offset="0.81" stop-color="#929292" stop-opacity="0.81"/><stop offset="1" stop-color="#4d4d4d"/></linearGradient><clipPath id="clip-path"><rect id="SVGID" class="cls-1" x="9.82" y="13.83" width="27.68" height="19.65"/></clipPath></defs><title>youtube</title><g class="cls-2"><g id="Layer_2" data-name="Layer 2"><g id="Layer_1-2" data-name="Layer 1"><circle class="cls-3" cx="24" cy="24" r="23.5" transform="translate(-0.3 47.7) rotate(-89.29)"/><path class="cls-4" d="M24.29.5c-.42,0-.84,0-1.25,0A23.39,23.39,0,0,0,11.27,4.24C13,32.68,28,40.3,39.12,42A23.5,23.5,0,0,0,24.29.5Z"/><circle class="cls-5" cx="24" cy="25" r="20.22" transform="translate(-1.3 48.69) rotate(-89.29)"/><path class="cls-4" d="M23.75,45.22h1.08A20.12,20.12,0,0,0,34.95,42C33.46,17.53,20.57,11,11,9.52a20.22,20.22,0,0,0,12.76,35.7Z"/><g class="cls-6"><path class="cls-7" d="M31.75,13.82H15.57a5.75,5.75,0,0,0-5.75,5.75v8.09a5.75,5.75,0,0,0,5.75,5.75H31.75a5.75,5.75,0,0,0,5.75-5.75V19.57a5.75,5.75,0,0,0-5.75-5.75ZM27.86,24l-7.57,3.61a.3.3,0,0,1-.43-.27V19.89a.3.3,0,0,1,.44-.27l7.57,3.83a.3.3,0,0,1,0,.55Zm0,0"/></g></g></g></g></svg>